PathFileType	4	(X/Y/Z)	RBDS012\RBDS012runT35.trc
DataRate	CameraRate	NumFrames	NumMarkers	Units	OrigDataRate	OrigDataStartFrame	OrigNumFrames
150.000000	150.000000	4	33	mm	150.000000	3375	4500
Frame#	Time	L.ASIS			L.Heel.Bottom			L.Heel.Lateral			L.Heel.Top			L.Iliac.Crest			L.MT1			L.MT5			L.PSIS			L.Shank.Bottom.Lateral			L.Shank.Bottom.Medial			L.Shank.Top.Lateral			L.Shank.Top.Medial			L.Thigh.Bottom.Lateral			L.Thigh.Bottom.Medial			L.Thigh.Top.Lateral			L.Thigh.Top.Medial			R.ASIS			R.ASY			R.Heel.Bottom			R.Heel.Lateral			R.Heel.Top			R.Iliac.Crest			R.MT1			R.MT5			R.PSIS			R.Shank.Bottom.Lateral			R.Shank.Bottom.Medial			R.Shank.Top.Lateral			R.Shank.Top.Medial			R.Thigh.Bottom.Lateral			R.Thigh.Bottom.Medial			R.Thigh.Top.Lateral			R.Thigh.Top.Medial			
		X1	Y1	Z1	X2	Y2	Z2	X3	Y3	Z3	X4	Y4	Z4	X5	Y5	Z5	X6	Y6	Z6	X7	Y7	Z7	X8	Y8	Z8	X9	Y9	Z9	X10	Y10	Z10	X11	Y11	Z11	X12	Y12	Z12	X13	Y13	Z13	X14	Y14	Z14	X15	Y15	Z15	X16	Y16	Z16	X17	Y17	Z17	X18	Y18	Z18	X19	Y19	Z19	X20	Y20	Z20	X21	Y21	Z21	X22	Y22	Z22	X23	Y23	Z23	X24	Y24	Z24	X25	Y25	Z25	X26	Y26	Z26	X27	Y27	Z27	X28	Y28	Z28	X29	Y29	Z29	X30	Y30	Z30	X31	Y31	Z31	X32	Y32	Z32	X33	Y33	Z33	

3376	22.5	2254.8614771322	996.5639187067231	886.821482121957	1561.337652392094	586.0388684864018	975.1292694903238	1567.488552714537	558.3977758297218	926.6113707286776	1609.769626714738	572.6093983195938	971.4409255133603	2221.051271123462	1083.534984083041	864.717669662784	1560.679237702238	361.3963323487453	1001.254518015341	1552.753577064289	395.1697355379276	887.8341160755654	2099.500430333738	1061.638515861649	983.3502206916065	1694.089537308864	505.3653943722143	904.5178402142683	1692.789095287229	549.2384543066747	938.4414947873627	1771.39662406963	520.8300302303717	888.6565840056833	1771.033263859071	563.3264925272188	921.6612565480978	2105.655921532119	603.0649012681148	856.3407183911602	2041.874243224615	615.480550339151	889.6339877919153	2114.3594116347	712.0139414497997	840.0203415061931	2056.175161210044	724.0967190772851	874.2340164533148	2257.09668479256	1002.726949420991	1151.460744778531	2498.823105324811	109.5969058951693	1082.418894333964	2319.266773001109	25.73490362068452	1069.801623067329	2337.152758603131	44.37981598260198	1107.346446351938	2323.821240778304	75.267885395584	1068.892043985426	2215.775943372313	1067.446114031148	1191.128840115187	2536.604349544067	73.89640826251787	1033.240620817635	2506.47035448251	61.41287117678779	1147.349014159063	2092.976580570428	1046.823539297364	1090.191611835405	2370.229474582196	176.3303459736836	1126.790245585142	2330.747734695189	181.6267888758565	1094.308443199812	2361.394072954588	258.262004726916	1146.513985229057	2319.367766923852	259.0975510591718	1113.49381157855	2327.407638945045	608.7598257026965	1177.849531736437	2272.463786794799	582.4336245467578	1137.308761018616	2268.14957171542	699.5154091176768	1195.256658971625	2216.246537142861	676.0498371173695	1156.55705455216	
3377	22.50666666666667	2253.696073884886	990.3576507471829	887.0032689244501	1576.642614566661	602.4225564924564	971.5502465349196	1581.338631117718	573.5968112741928	923.6435378481762	1624.394992471092	586.4588446272244	968.3638922272064	2219.110491711489	1076.05645226558	863.8776860986067	1564.92071615435	378.2007353928435	1001.870037290789	1558.843321735689	410.4622726767338	887.7391045018969	2097.289393939599	1053.253300472864	982.5862415974511	1705.044013383631	513.9289813878837	902.9357702699095	1705.813993396289	558.3476286918914	936.1220681485682	1782.987016067761	525.3249801483951	886.9101183814765	1784.642849520165	568.2852921058154	919.2196262398134	2112.165784971581	595.0869633606619	855.2493978467236	2048.692296524275	605.8419436762716	889.7070860875872	2118.149570861975	704.2829473781693	839.4150889582521	2060.140867295069	714.8240979734138	874.4183433530196	2255.472138481686	996.767719998629	1153.093958098458	2481.518835025624	102.0912796396373	1080.459608685475	2297.170339260655	26.90586969665235	1069.459577281147	2316.124960148113	45.27234225028171	1106.700530291172	2304.216963747181	76.352920466954	1067.842599387476	2212.880042975842	1060.071465814838	1192.130401957282	2517.344845639928	64.58581236807954	1031.600206452475	2487.027361188331	54.85538470895644	1146.259869022374	2090.281955923371	1039.120736046069	1089.250049137654	2357.546891553557	173.4756735082173	1125.898180746884	2317.664959318496	180.6410126135385	1094.259186831688	2352.798678048419	255.5964670895481	1145.827985290558	2310.25408530329	258.4809902160746	1113.695873976835	2327.804464492113	605.1297626994394	1177.655702647635	2273.019591722213	578.5567795174275	1136.971854766545	2268.012745992289	695.5704619116589	1194.973221952468	2216.193548860615	671.7600025371505	1156.313076279634	
3378	22.51333333333334	2252.305627520089	983.617590988031	887.357805159092	1593.118686925408	616.8382729533826	968.1799792943413	1596.417342162776	587.0134147974096	920.7857246240203	1640.158846392804	598.6569841120292	965.429082567495	2217.245484614702	1067.833518767075	863.1278061514913	1571.483638310763	393.5498074525364	1002.277283057597	1566.928867790723	424.2691529065874	887.5897903914644	2094.786880641177	1044.727340568584	981.5143900853877	1717.222742253811	521.4021213749753	901.4061994577476	1720.055428950669	566.2395290502905	933.9204347984195	1795.565437111281	528.9125112206664	885.1770261865478	1799.224476134583	572.2091573042175	916.8332815195029	2118.941501763476	587.2816046686537	854.1539698288921	2055.749746849948	596.3037271616881	889.648980123152	2122.097370799223	696.6719465810972	838.8446513601295	2064.226737359299	705.5915197028434	874.5249712523344	2253.681434085659	990.9820950877062	1154.947038461547	2462.624190866582	95.57414162317312	1078.746087444414	2274.16188808668	28.17778531572116	1069.167906605418	2294.006637075378	46.32475273627818	1106.14801846356	2283.374747356378	77.53534632720374	1066.90612532923	2209.688644637384	1052.655690427973	1193.25934060078	2496.744491126912	56.69752155067692	1030.346292390104	2466.229640982094	49.50767881176051	1145.58598815543	2087.525915666079	1031.66283916263	1087.995669603695	2343.752864962136	171.1790150858492	1125.035557444545	2303.530064604141	180.3247857723022	1094.290009295349	2343.304141452172	253.3412948397303	1145.20404948478	2300.30661161838	258.4075494688748	1113.985683069824	2327.509793152126	601.3270946751761	1177.545525671222	2273.020856955538	574.7289939453699	1136.397326556621	2267.260030164909	691.503801802584	1194.796582420589	2215.629809231371	667.5327288779504	1155.935914868895	
3379	22.52	2250.689584534366	976.4681508107167	887.8974950747822	1610.43808526359	629.2282954007914	965.0579110125867	1612.469308974918	598.5873608111528	918.0658109741826	1656.782624362088	609.1749826528701	962.6944150804389	2215.372710857857	1059.115580501257	862.4903264758476	1580.197857279175	407.2220282047476	1002.492591644447	1576.902832725088	436.414690205648	887.3966938216713	2092.025912571458	1036.332968362847	980.225863776233	1730.495087763574	527.7501096113809	899.9587950814505	1735.348889172	572.893132757441	931.8677332436361	1809.036003775484	531.6027968724453	883.4970247619901	1814.648938598306	575.1226001756928	914.5428322838285	2126.067152569999	579.8007684295009	853.0749228227088	2063.108762166112	587.0154575902646	889.4266505261612	2126.285806316775	689.3223082905315	838.3175871213689	2068.503458148953	696.5405230444127	874.5307587502905	2251.725546863225	985.4803753708179	1156.968890283071	2442.434145711914	90.24078776087219	1077.338698036721	2250.697162487738	29.45845215800538	1068.951551778595	2271.231567550951	47.45091730097464	1105.721766224085	2261.681410103459	78.72731646847774	1066.13494219736	2206.257126639513	1045.404202977649	1194.451721947572	2475.166460329951	50.47734797627562	1029.497904901157	2444.458170091456	45.50536846709402	1145.309516464116	2084.770510098325	1024.650512674034	1086.501935413148	2328.983534119897	169.4400024068604	1124.228955729004	2288.508840865496	180.612638149645	1094.391554508852	2332.908043024334	251.4726858106247	1144.659495257383	2289.555713062305	258.7790176618371	1114.339795449052	2326.413050106395	597.3914641298836	1177.51615395274	2272.311878243063	570.9911515842117	1135.653853029633	2265.832303467469	687.3819094272827	1194.757424001919	2214.464708580553	663.4471108966688	1155.494075958376	
